<svg width="1368" height="379" xmlns="http://www.w3.org/2000/svg" xmlns:xlink="http://www.w3.org/1999/xlink" xml:space="preserve" overflow="hidden"><g transform="translate(44 -170)"><g><g><g><g><path d="M257.714 264.514 204.335 124.097 241.054 124.097 276.754 224.395 312.793 124.437 349.512 124.437 295.793 264.514 257.714 264.514Z" fill="#001552" fill-rule="nonzero" fill-opacity="1" transform="matrix(1 0 0 1.00071 -42.7044 171)"/><path d="M389.971 264.514 389.971 124.097 424.99 124.097 424.99 264.174 389.971 264.174Z" fill="#001552" fill-rule="nonzero" fill-opacity="1" transform="matrix(1 0 0 1.00071 -42.7044 171)"/><path d="M544.328 266.554C519.848 266.554 501.148 260.434 488.229 247.854 475.309 235.275 468.849 217.935 468.849 195.496 468.849 172.036 474.969 154.016 487.549 141.437 500.129 128.517 518.828 122.397 543.648 122.397 552.147 122.397 559.967 123.077 566.767 124.437 573.567 125.797 580.027 127.497 586.147 129.537L586.147 160.136C573.567 155.036 560.307 152.317 546.367 152.317 531.748 152.317 521.208 155.716 514.408 162.856 507.608 169.996 504.208 180.876 504.208 195.836 504.208 210.115 507.608 220.655 514.748 227.115 521.888 233.915 532.428 236.975 546.367 236.975 553.167 236.975 559.967 236.295 566.767 235.275 573.567 233.915 580.027 232.215 586.147 229.495L586.147 260.434C580.027 262.474 573.567 264.174 566.767 265.194 560.307 265.874 552.827 266.554 544.328 266.554Z" fill="#001552" fill-rule="nonzero" fill-opacity="1" transform="matrix(1 0 0 1.00071 -42.7044 171)"/><path d="M693.924 266.554C681.004 266.554 669.445 264.514 659.925 260.094 650.405 256.014 642.925 249.554 637.485 241.394 632.046 233.235 629.666 223.035 629.666 210.795L629.666 124.097 664.685 124.097 664.685 207.735C664.685 217.595 667.065 224.735 672.165 229.495 677.264 234.255 684.404 236.635 693.924 236.635 703.444 236.635 710.584 234.255 715.684 229.495 720.784 224.735 723.163 217.595 723.163 207.735L723.163 124.097 758.183 124.097 758.183 210.795C758.183 222.695 755.463 232.895 750.363 241.394 744.923 249.554 737.443 256.014 727.923 260.094 718.404 264.514 706.844 266.554 693.924 266.554Z" fill="#001552" fill-rule="nonzero" fill-opacity="1" transform="matrix(1 0 0 1.00071 -42.7044 171)"/><path d="M805.442 264.514 805.442 124.097 875.48 124.097C892.14 124.097 904.039 128.517 912.199 137.017 920.019 145.857 924.099 157.416 924.099 172.036 924.099 181.556 921.719 189.716 916.959 196.855 912.199 203.995 905.739 209.095 897.239 212.835 899.279 214.535 900.979 216.235 901.999 218.275 903.359 220.315 904.719 223.035 906.079 226.435L922.739 264.174 886.02 264.174 870.38 228.815C869.02 225.755 867.32 223.715 865.28 222.015 863.24 220.655 860.18 219.975 856.44 219.975L840.461 219.975 840.461 264.514 805.442 264.514ZM840.461 193.116 866.3 193.116C873.1 193.116 878.54 191.416 882.28 188.016 886.02 184.616 888.06 179.516 888.06 172.376 888.06 158.436 881.26 151.297 867.66 151.297L840.121 151.297 840.121 193.116Z" fill="#001552" fill-rule="nonzero" fill-opacity="1" transform="matrix(1 0 0 1.00071 -42.7044 171)"/><path d="M953.678 264.514 1007.06 124.437 1044.8 124.437 1098.17 264.514 1061.46 264.514 1048.88 232.895 1001.96 232.895 989.717 264.514 953.678 264.514ZM1007.4 206.715 1044.46 206.715 1025.76 158.096 1007.4 206.715Z" fill="#001552" fill-rule="nonzero" fill-opacity="1" transform="matrix(1 0 0 1.00071 -42.7044 171)"/><path d="M1177.05 266.554C1167.87 266.554 1159.03 265.874 1151.21 264.514 1143.05 263.154 1136.25 261.114 1130.47 258.394L1130.47 228.475C1136.93 231.195 1144.07 233.575 1151.55 235.275 1159.37 236.975 1166.51 237.995 1173.65 237.995 1182.49 237.995 1188.95 237.315 1193.03 235.615 1197.45 233.915 1199.49 230.515 1199.49 225.075 1199.49 221.335 1198.47 218.615 1196.43 216.235 1194.39 214.195 1190.99 212.155 1186.23 210.455 1181.47 208.755 1175.01 206.715 1166.85 204.335 1157.33 201.275 1149.51 198.215 1144.07 194.816 1138.29 191.416 1134.21 186.996 1131.83 181.896 1129.45 176.796 1128.09 170.676 1128.09 163.196 1128.09 149.937 1132.85 139.737 1142.37 132.597 1151.89 125.457 1166.17 122.057 1184.87 122.057 1193.03 122.057 1200.85 122.737 1208.67 123.757 1216.49 125.117 1222.61 126.477 1227.37 127.837L1227.37 157.756C1221.25 155.376 1214.79 153.336 1208.67 152.317 1202.21 151.297 1196.09 150.617 1190.31 150.617 1182.49 150.617 1176.03 151.297 1171.27 152.657 1166.51 154.016 1164.13 157.416 1164.13 162.516 1164.13 165.576 1165.15 167.956 1166.85 169.656 1168.55 171.356 1171.61 173.056 1176.03 174.416 1180.45 175.776 1186.23 177.476 1193.71 179.516 1205.27 182.576 1214.11 186.316 1219.89 190.396 1226.01 194.816 1230.09 199.575 1232.47 205.355 1234.85 211.135 1235.87 217.255 1235.87 224.055 1235.87 236.295 1231.11 246.494 1221.59 253.974 1211.73 262.814 1196.77 266.554 1177.05 266.554Z" fill="#001552" fill-rule="nonzero" fill-opacity="1" transform="matrix(1 0 0 1.00071 -42.7044 171)"/><path d="M94.5178 84.3181 94.5178 161.496 132.937 161.496C154.356 161.496 171.356 144.157 171.356 123.077L171.356 84.3181 94.5178 84.3181Z" fill="#EA47F7" fill-rule="nonzero" fill-opacity="1" transform="matrix(1 0 0 1.00071 -42.7044 171)"/></g></g></g></g></g></svg>